<svg xmlns="http://www.w3.org/2000/svg" viewBox="0 0 512 512" width="100%" height="100%">
  <defs>
    <radialGradient id="bgGrad" cx="50%" cy="50%" r="70%" fx="30%" fy="30%">
      <stop offset="0%" stop-color="#1c2536" />
      <stop offset="100%" stop-color="#0b1220" />
    </radialGradient>
    
    <linearGradient id="brandGrad" gradientUnits="userSpaceOnUse" x1="165" y1="380" x2="347" y2="168">
      <stop offset="0%" stop-color="#7c5cff" />
      <stop offset="100%" stop-color="#33c3ff" />
    </linearGradient>
    
    <filter id="glow" x="-20%" y="-20%" width="140%" height="140%">
      <feGaussianBlur stdDeviation="8" result="blur" />
      <feComponentTransfer in="blur" result="glow">
        <feFuncA type="linear" slope="0.6" />
      </feComponentTransfer>
      <feMerge>
        <feMergeNode in="glow" />
        <feMergeNode in="SourceGraphic" />
      </feMerge>
    </filter>
  </defs>

  <rect width="512" height="512" rx="112" fill="url(#bgGrad)" />

  <g fill="none" stroke="#ffffff" stroke-width="14" stroke-linecap="round" stroke-linejoin="round" opacity="0.12">
    <path d="M 96 144 L 96 96 L 144 96" />
    <path d="M 368 96 L 416 96 L 416 144" />
    <path d="M 416 368 L 416 416 L 368 416" />
    <path d="M 144 416 L 96 416 L 96 368" />
  </g>

  <rect x="125" y="156" width="24" height="24" rx="8" fill="#5b91ff" opacity="0.9" />
  <rect x="125" y="368" width="24" height="24" rx="8" fill="#7c5cff" opacity="0.9" />
  <rect x="373" y="156" width="24" height="24" rx="8" fill="#33c3ff" opacity="0.9" />

  <path d="
    M 165 380
    L 287 380
    A 46 46 0 0 0 333 334
    L 333 320
    A 46 46 0 0 0 287 274
    L 235 274
    A 46 46 0 0 1 189 228
    L 189 214
    A 46 46 0 0 1 235 168
    L 333 168
    M 297 132 L 347 168 L 297 204
  " fill="none" stroke="url(#brandGrad)" stroke-width="24" stroke-linecap="round" stroke-linejoin="round" filter="url(#glow)" />
</svg>
